<?xml version="1.0" encoding="utf-8"?>
<!-- Generator: Adobe Illustrator 25.4.1, SVG Export Plug-In . SVG Version: 6.00 Build 0)  -->
<svg version="1.1" id="图层_1" xmlns="http://www.w3.org/2000/svg" xmlns:xlink="http://www.w3.org/1999/xlink" x="0px" y="0px"
	 viewBox="0 0 800 800" style="enable-background:new 0 0 800 800;" xml:space="preserve">
<style type="text/css">
	.st0{fill:#FF9A22;}
	.st1{fill:#0437DF;}
	.st2{fill:#040B1D;}
	.st3{fill:#FFFFFF;}
	.st4{fill-rule:evenodd;clip-rule:evenodd;fill:#8B8B8B;}
	.st5{fill:#E6E6E6;}
	.st6{fill:#3E3A39;}
	.st7{fill:#2C6AFF;}
	.st8{fill:#FFBE00;}
	.st9{fill:#FF4F60;}
	.st10{fill:none;stroke:#FF4F60;stroke-width:0.1;stroke-miterlimit:10;}
	.st11{fill:#B3B3B3;}
	.st12{fill:none;stroke:#E63828;stroke-miterlimit:10;}
	.st13{fill-rule:evenodd;clip-rule:evenodd;fill:url(#SVGID_1_);}
	.st14{fill:#FF8810;}
	.st15{fill:#CDDADF;}
	.st16{fill:#1A1A1A;}
	.st17{fill:#C1CED3;}
	.st18{fill:url(#SVGID_00000084493111333060672710000018076408582799137175_);}
	.st19{fill-rule:evenodd;clip-rule:evenodd;fill:url(#SVGID_00000090297076011453346480000008416180127003745168_);}
	.st20{fill:url(#SVGID_00000125589810064533333960000002231648418926850486_);}
	.st21{display:none;}
	.st22{display:inline;}
	.st23{fill:none;stroke:#C7C8C9;stroke-width:0.5;stroke-miterlimit:10;}
	.st24{fill:#E63828;}
	.st25{display:inline;fill:#E63828;}
	.st26{display:inline;fill:none;stroke:#E63828;stroke-miterlimit:10;}
	.st27{fill-rule:evenodd;clip-rule:evenodd;fill:#C1CED3;}
	.st28{fill:url(#SVGID_00000180325102149206019970000005773274357558067341_);}
	.st29{fill-rule:evenodd;clip-rule:evenodd;fill:url(#SVGID_00000030453620557686728380000004867266355669967294_);}
	.st30{fill-rule:evenodd;clip-rule:evenodd;fill:#3E3A39;}
	.st31{fill:url(#SVGID_00000052788611880071154600000014165412965623722624_);}
	.st32{fill-rule:evenodd;clip-rule:evenodd;fill:url(#SVGID_00000011003280839807381580000014239722295443290043_);}
	.st33{fill-rule:evenodd;clip-rule:evenodd;fill:url(#SVGID_00000000223063533003675800000004469270373400788134_);}
	.st34{fill-rule:evenodd;clip-rule:evenodd;fill:url(#Fill-7_00000085934934359376780560000013927452369775780251_);}
	.st35{fill-rule:evenodd;clip-rule:evenodd;fill:url(#Fill-9_00000158708153315744322830000012277645662900826264_);}
	.st36{fill-rule:evenodd;clip-rule:evenodd;fill:#FF8910;}
	.st37{fill-rule:evenodd;clip-rule:evenodd;fill:url(#SVGID_00000071533480732156314070000005851253879960559778_);}
	.st38{fill-rule:evenodd;clip-rule:evenodd;fill:url(#Fill-7_00000177448453547529315150000001218060901802371731_);}
	.st39{fill-rule:evenodd;clip-rule:evenodd;fill:url(#Fill-9_00000029015895897029476730000012106881062526424470_);}
</style>
<g>
	<path class="st7" d="M239.9,472.7V327.2c0-12.7,6.8-24.5,17.8-30.9L382,223.7c11.1-6.5,24.9-6.5,36.1,0l41,23.9l207.5,119.8
		c23.9,13.8,53.7-3.4,53.7-31V233.7c0-12.7-6.8-24.5-17.8-30.9L418,36.9c-11.1-6.5-24.9-6.5-36.1,0L97.5,202.8
		c-11,6.4-17.8,18.2-17.8,30.9v332.5c0,12.7,6.8,24.5,17.8,30.9L382,763.1c11.1,6.5,24.9,6.5,36.1,0l90.4-52.7
		c23.7-13.9,23.7-48.2-0.1-61.9L257.8,503.8C246.7,497.4,239.9,485.5,239.9,472.7z"/>
	<path class="st8" d="M542.4,503.8l-90.2,52.6l143,82.5c11.1,6.4,24.8,6.4,35.9-0.1l71.5-41.7c11-6.4,17.8-18.2,17.8-30.9v-87.5
		c0-12.8-6.8-24.6-17.9-31l-142.2-82.1v107.2C560.1,485.6,553.4,497.4,542.4,503.8z"/>
	<path class="st9" d="M404.3,306.7v77.1c0,12.7-6.8,24.5-17.8,30.9l-62.8,36.6c-11.9,6.9-11.8,24.1,0.1,31l128.3,74.1l90.2-52.6
		c11-6.4,17.8-18.2,17.8-30.9V365.7l-129-74.5C419.2,284.3,404.3,292.9,404.3,306.7z"/>
</g>
</svg>
